<svg width="13" height="15" viewBox="0 0 13 15" fill="none" xmlns="http://www.w3.org/2000/svg">
<path fill-rule="evenodd" clip-rule="evenodd" d="M6.5 0C4.58541 0 3.03333 1.41384 3.03333 3.15789C3.03333 4.90195 4.58541 6.31579 6.5 6.31579C8.41459 6.31579 9.96667 4.90195 9.96667 3.15789C9.96667 1.41384 8.41459 0 6.5 0ZM3.9 3.15789C3.9 1.84985 5.06406 0.789474 6.5 0.789474C7.93594 0.789474 9.1 1.84985 9.1 3.15789C9.1 4.46594 7.93594 5.52632 6.5 5.52632C5.06406 5.52632 3.9 4.46594 3.9 3.15789Z" fill="white"/>
<path fill-rule="evenodd" clip-rule="evenodd" d="M6.5 8.28947C2.91015 8.28947 0 10.9404 0 14.2105V15H13V14.2105C13 10.9404 10.0899 8.28947 6.5 8.28947ZM0.866667 14.2105C0.866667 11.3764 3.3888 9.07895 6.5 9.07895C9.6112 9.07895 12.1333 11.3764 12.1333 14.2105H0.866667Z" fill="white"/>
</svg>
