<svg width="33" height="33" viewBox="0 0 33 33" fill="none" xmlns="http://www.w3.org/2000/svg">
<rect width="33" height="33" fill="#0C0C0C"/>
<g clip-path="url(#clip0_1917_6727)">
<path fill-rule="evenodd" clip-rule="evenodd" d="M17.247 24.969C18.3971 23.9254 19.4615 22.7911 20.43 21.577C22.47 19.014 23.711 16.487 23.795 14.24C23.8282 13.3268 23.6771 12.4163 23.3505 11.5628C23.024 10.7093 22.5288 9.9304 21.8945 9.27259C21.2602 8.61478 20.4998 8.09157 19.6588 7.7342C18.8177 7.37684 17.9133 7.19265 16.9995 7.19265C16.0857 7.19265 15.1813 7.37684 14.3402 7.7342C13.4992 8.09157 12.7388 8.61478 12.1045 9.27259C11.4702 9.9304 10.975 10.7093 10.6485 11.5628C10.3219 12.4163 10.1708 13.3268 10.204 14.24C10.289 16.487 11.531 19.014 13.57 21.577C14.5385 22.7911 15.6029 23.9254 16.753 24.969C16.8637 25.069 16.946 25.1417 17 25.187L17.247 24.969ZM16.262 26.134C16.262 26.134 9 20.018 9 14C9 11.8783 9.84285 9.84344 11.3431 8.34315C12.8434 6.84285 14.8783 6 17 6C19.1217 6 21.1566 6.84285 22.6569 8.34315C24.1571 9.84344 25 11.8783 25 14C25 20.018 17.738 26.134 17.738 26.134C17.334 26.506 16.669 26.502 16.262 26.134ZM17 16.8C17.7426 16.8 18.4548 16.505 18.9799 15.9799C19.505 15.4548 19.8 14.7426 19.8 14C19.8 13.2574 19.505 12.5452 18.9799 12.0201C18.4548 11.495 17.7426 11.2 17 11.2C16.2574 11.2 15.5452 11.495 15.0201 12.0201C14.495 12.5452 14.2 13.2574 14.2 14C14.2 14.7426 14.495 15.4548 15.0201 15.9799C15.5452 16.505 16.2574 16.8 17 16.8ZM17 18C15.9391 18 14.9217 17.5786 14.1716 16.8284C13.4214 16.0783 13 15.0609 13 14C13 12.9391 13.4214 11.9217 14.1716 11.1716C14.9217 10.4214 15.9391 10 17 10C18.0609 10 19.0783 10.4214 19.8284 11.1716C20.5786 11.9217 21 12.9391 21 14C21 15.0609 20.5786 16.0783 19.8284 16.8284C19.0783 17.5786 18.0609 18 17 18Z" fill="white"/>
</g>
<defs>
<clipPath id="clip0_1917_6727">
<rect width="25" height="25" fill="white" transform="translate(4 4)"/>
</clipPath>
</defs>
</svg>
