<svg width="33" height="33" viewBox="0 0 33 33" fill="none" xmlns="http://www.w3.org/2000/svg">
<rect width="33" height="33" fill="#0C0C0C"/>
<g clip-path="url(#clip0_1917_6726)">
<path d="M24.3132 26.9167C24.7276 26.9167 25.125 26.752 25.418 26.459C25.711 26.166 25.8757 25.7686 25.8757 25.3542V21.7083C25.8757 21.2939 25.711 20.8965 25.418 20.6035C25.125 20.3105 24.7276 20.1458 24.3132 20.1458C23.0944 20.1458 21.8965 19.9583 20.7507 19.5729C20.4767 19.4864 20.1843 19.4767 19.9052 19.5446C19.6261 19.6125 19.3709 19.7556 19.1673 19.9583L17.6673 21.4583C15.0759 20.0442 12.9461 17.9143 11.5319 15.3229L13.0215 13.8333C13.4486 13.4271 13.6048 12.8229 13.4173 12.2396C13.0423 11.1042 12.8548 9.90625 12.8548 8.6875C12.8548 8.2731 12.6902 7.87567 12.3972 7.58265C12.1041 7.28962 11.7067 7.125 11.2923 7.125H7.64648C7.23208 7.125 6.83466 7.28962 6.54163 7.58265C6.2486 7.87567 6.08398 8.2731 6.08398 8.6875C6.08398 18.7396 14.2611 26.9167 24.3132 26.9167ZM7.64648 8.16667H11.2923C11.4305 8.16667 11.5629 8.22154 11.6606 8.31922C11.7583 8.41689 11.8132 8.54937 11.8132 8.6875C11.8132 10.0208 12.0215 11.3229 12.4277 12.5625C12.4798 12.7083 12.4694 12.9167 12.3027 13.0833L10.2507 15.125C11.9694 18.4896 14.4902 21.0104 17.8652 22.75L19.8965 20.6979C20.0423 20.5521 20.2402 20.5104 20.4277 20.5625C21.6777 20.9792 22.9798 21.1875 24.3132 21.1875C24.4513 21.1875 24.5838 21.2424 24.6814 21.34C24.7791 21.4377 24.834 21.5702 24.834 21.7083V25.3542C24.834 25.4923 24.7791 25.6248 24.6814 25.7225C24.5838 25.8201 24.4513 25.875 24.3132 25.875C14.834 25.875 7.12565 18.1667 7.12565 8.6875C7.12565 8.54937 7.18052 8.41689 7.2782 8.31922C7.37587 8.22154 7.50835 8.16667 7.64648 8.16667Z" fill="white"/>
</g>
<defs>
<clipPath id="clip0_1917_6726">
<rect width="25" height="25" fill="white" transform="translate(4 4)"/>
</clipPath>
</defs>
</svg>
