<svg width="33" height="33" viewBox="0 0 33 33" fill="none" xmlns="http://www.w3.org/2000/svg">
<rect width="33" height="33" fill="#0C0C0C"/>
<path d="M8.80833 23.7913C8.32847 23.7913 7.92813 23.6309 7.60729 23.3101C7.28646 22.9893 7.12569 22.5886 7.125 22.108V10.8913C7.125 10.4115 7.28576 10.0111 7.60729 9.6903C7.92882 9.36947 8.32882 9.2087 8.80729 9.20801H24.1927C24.6719 9.20801 25.0719 9.36877 25.3927 9.6903C25.7135 10.0118 25.8743 10.4122 25.875 10.8913V22.1091C25.875 22.5882 25.7142 22.9886 25.3927 23.3101C25.0712 23.6316 24.6712 23.792 24.1927 23.7913H8.80833ZM24.8333 11.1715L16.9667 16.3216C16.8931 16.3597 16.8187 16.392 16.7437 16.4184C16.6681 16.4441 16.5868 16.457 16.5 16.457C16.4132 16.457 16.3319 16.4441 16.2562 16.4184C16.1806 16.3927 16.1062 16.3604 16.0333 16.3216L8.16667 11.1705V22.108C8.16667 22.2955 8.22674 22.4493 8.34687 22.5695C8.46701 22.6896 8.62083 22.7497 8.80833 22.7497H24.1927C24.3795 22.7497 24.533 22.6896 24.6531 22.5695C24.7733 22.4493 24.8333 22.2955 24.8333 22.108V11.1715ZM16.5 15.458L24.5125 10.2497H8.4875L16.5 15.458ZM8.16667 11.3913V10.5465V10.582V10.2497V10.583V10.5288V11.3913Z" fill="white"/>
</svg>
