<svg width="15" height="15" viewBox="0 0 15 15" fill="none" xmlns="http://www.w3.org/2000/svg">
<path d="M4.48688 2.1875H8.01312C8.35187 2.1875 8.62563 2.1875 8.84625 2.20563C9.07438 2.22438 9.27437 2.26375 9.45938 2.3575C9.7533 2.50743 9.99221 2.74657 10.1419 3.04062C10.2362 3.22562 10.2756 3.42562 10.2944 3.65312C10.3125 3.875 10.3125 4.14812 10.3125 4.48688V6.40625C10.3125 6.48913 10.2796 6.56862 10.221 6.62722C10.1624 6.68583 10.0829 6.71875 10 6.71875C9.91712 6.71875 9.83763 6.68583 9.77903 6.62722C9.72042 6.56862 9.6875 6.48913 9.6875 6.40625V4.5C9.6875 4.145 9.6875 3.8975 9.67125 3.70438C9.65625 3.51562 9.6275 3.40687 9.585 3.32437C9.49525 3.14791 9.35195 3.00439 9.17562 2.91438C9.09312 2.8725 8.985 2.84375 8.79562 2.82875C8.6025 2.8125 8.355 2.8125 8 2.8125H4.5C4.145 2.8125 3.8975 2.8125 3.70438 2.82875C3.51562 2.84375 3.40687 2.8725 3.32437 2.91438C3.14782 3.00428 3.00428 3.14782 2.91438 3.32437C2.8725 3.40687 2.84375 3.51562 2.82875 3.70438C2.8125 3.8975 2.8125 4.145 2.8125 4.5V10.5C2.8125 10.855 2.8125 11.1031 2.82875 11.2956C2.84375 11.4844 2.8725 11.5931 2.91438 11.6756C3.00328 11.8498 3.14446 11.9919 3.31813 12.0819L3.32437 12.0831C3.33562 12.0856 3.36312 12.0919 3.41437 12.0994C3.49312 12.111 3.59625 12.1215 3.72375 12.1306C3.97625 12.1494 4.29875 12.1619 4.64 12.1706C5.32062 12.1875 6.05562 12.1875 6.40625 12.1875C6.48913 12.1875 6.56862 12.2204 6.62722 12.279C6.68583 12.3376 6.71875 12.4171 6.71875 12.5C6.71875 12.5829 6.68583 12.6624 6.62722 12.721C6.56862 12.7796 6.48913 12.8125 6.40625 12.8125H6.40562C6.05562 12.8125 5.31313 12.8125 4.62438 12.7956C4.30848 12.7891 3.99277 12.7754 3.6775 12.7544C3.55919 12.7465 3.4412 12.7344 3.32375 12.7181C3.22596 12.7077 3.13042 12.682 3.04062 12.6419C2.74657 12.4922 2.50743 12.2533 2.3575 11.9594C2.26375 11.7744 2.22438 11.5744 2.20563 11.3469C2.1875 11.125 2.1875 10.8512 2.1875 10.5125V4.4875C2.1875 4.14875 2.1875 3.875 2.20563 3.65438C2.22438 3.42625 2.26375 3.22625 2.3575 3.04125C2.50733 2.7471 2.74647 2.50795 3.04062 2.35813C3.22562 2.26438 3.42562 2.225 3.65312 2.20625C3.875 2.1875 4.14812 2.1875 4.48688 2.1875Z" fill="black"/>
<path d="M11.6375 7.8125C11.8894 7.8125 12.0969 7.8125 12.2662 7.82625C12.4419 7.84063 12.6038 7.87125 12.755 7.94875C12.9902 8.06859 13.1814 8.25981 13.3012 8.495C13.3787 8.64687 13.4094 8.80812 13.4237 8.98375C13.4375 9.1525 13.4375 9.36062 13.4375 9.61187V11.0131C13.4375 11.2644 13.4375 11.4719 13.4237 11.6412C13.4094 11.8169 13.3787 11.9788 13.3012 12.13C13.1814 12.3652 12.9902 12.5564 12.755 12.6762C12.6031 12.7537 12.4419 12.7844 12.2662 12.7987C12.0975 12.8125 11.8894 12.8125 11.6381 12.8125H8.98687C8.73562 12.8125 8.52812 12.8125 8.35875 12.7987C8.18312 12.7844 8.02125 12.7537 7.87 12.6762C7.63481 12.5564 7.44359 12.3652 7.32375 12.13C7.24625 11.9781 7.21563 11.8169 7.20125 11.6412C7.1875 11.4725 7.1875 11.2644 7.1875 11.0131V9.61187C7.1875 9.36062 7.1875 9.15312 7.20125 8.98375C7.21563 8.80812 7.24625 8.64625 7.32375 8.495C7.44359 8.25981 7.63481 8.06859 7.87 7.94875C8.02187 7.87125 8.18312 7.84063 8.35875 7.82625C8.5275 7.8125 8.73562 7.8125 8.98687 7.8125H11.6375ZM8.41 8.44938C8.2725 8.46063 8.2025 8.48063 8.15375 8.50563C8.03615 8.56555 7.94055 8.66115 7.88063 8.77875C7.85563 8.8275 7.83563 8.8975 7.82438 9.035L7.82188 9.0625H12.8031L12.8006 9.035C12.7894 8.8975 12.7694 8.8275 12.7444 8.77875C12.6845 8.66115 12.5888 8.56555 12.4713 8.50563C12.4225 8.48063 12.3525 8.46063 12.215 8.44938C12.0185 8.43827 11.8217 8.43431 11.625 8.4375H9C8.7325 8.4375 8.55 8.4375 8.41 8.44938ZM12.8125 10.3125H7.8125V11C7.8125 11.2675 7.8125 11.45 7.82438 11.59C7.83563 11.7275 7.85563 11.7975 7.88063 11.8463C7.94055 11.9638 8.03615 12.0595 8.15375 12.1194C8.2025 12.1444 8.2725 12.1644 8.41 12.1756C8.55063 12.1875 8.7325 12.1875 9 12.1875H11.625C11.8925 12.1875 12.075 12.1875 12.215 12.1756C12.3525 12.1644 12.4225 12.1444 12.4713 12.1194C12.5888 12.0595 12.6845 11.9638 12.7444 11.8463C12.7694 11.7975 12.7894 11.7275 12.8006 11.59C12.8125 11.4494 12.8125 11.2675 12.8125 11V10.3125ZM4.0625 4.0625C3.97962 4.0625 3.90013 4.09542 3.84153 4.15403C3.78292 4.21263 3.75 4.29212 3.75 4.375C3.75 4.45788 3.78292 4.53737 3.84153 4.59597C3.90013 4.65458 3.97962 4.6875 4.0625 4.6875H6.5625C6.64538 4.6875 6.72487 4.65458 6.78347 4.59597C6.84208 4.53737 6.875 4.45788 6.875 4.375C6.875 4.29212 6.84208 4.21263 6.78347 4.15403C6.72487 4.09542 6.64538 4.0625 6.5625 4.0625H4.0625ZM3.75 6.25C3.75 6.16712 3.78292 6.08763 3.84153 6.02903C3.90013 5.97042 3.97962 5.9375 4.0625 5.9375H8.4375C8.52038 5.9375 8.59987 5.97042 8.65847 6.02903C8.71708 6.08763 8.75 6.16712 8.75 6.25C8.75 6.33288 8.71708 6.41237 8.65847 6.47097C8.59987 6.52958 8.52038 6.5625 8.4375 6.5625H4.0625C3.97962 6.5625 3.90013 6.52958 3.84153 6.47097C3.78292 6.41237 3.75 6.33288 3.75 6.25ZM4.0625 7.8125C3.97962 7.8125 3.90013 7.84542 3.84153 7.90403C3.78292 7.96263 3.75 8.04212 3.75 8.125C3.75 8.20788 3.78292 8.28737 3.84153 8.34597C3.90013 8.40458 3.97962 8.4375 4.0625 8.4375H6.25C6.33288 8.4375 6.41237 8.40458 6.47097 8.34597C6.52958 8.28737 6.5625 8.20788 6.5625 8.125C6.5625 8.04212 6.52958 7.96263 6.47097 7.90403C6.41237 7.84542 6.33288 7.8125 6.25 7.8125H4.0625ZM3.75 10.625C3.75 10.5421 3.78292 10.4626 3.84153 10.404C3.90013 10.3454 3.97962 10.3125 4.0625 10.3125H5.3125C5.39538 10.3125 5.47487 10.3454 5.53347 10.404C5.59208 10.4626 5.625 10.5421 5.625 10.625C5.625 10.7079 5.59208 10.7874 5.53347 10.846C5.47487 10.9046 5.39538 10.9375 5.3125 10.9375H4.0625C3.97962 10.9375 3.90013 10.9046 3.84153 10.846C3.78292 10.7874 3.75 10.7079 3.75 10.625Z" fill="black"/>
</svg>
