<svg width="15" height="15" viewBox="0 0 15 15" fill="none" xmlns="http://www.w3.org/2000/svg">
<path d="M7.5 1.875H3.125C2.79348 1.875 2.47554 2.0067 2.24112 2.24112C2.0067 2.47554 1.875 2.79348 1.875 3.125V11.875C1.875 12.2065 2.0067 12.5245 2.24112 12.7589C2.47554 12.9933 2.79348 13.125 3.125 13.125H11.875C12.2065 13.125 12.5245 12.9933 12.7589 12.7589C12.9933 12.5245 13.125 12.2065 13.125 11.875V7.5" stroke="black" stroke-linecap="round" stroke-linejoin="round"/>
<path d="M11.4869 1.64028C11.7355 1.39164 12.0727 1.25195 12.4244 1.25195C12.776 1.25195 13.1132 1.39164 13.3619 1.64028C13.6105 1.88892 13.7502 2.22615 13.7502 2.57778C13.7502 2.92941 13.6105 3.26664 13.3619 3.51528L7.72875 9.14903C7.58034 9.29731 7.397 9.40585 7.19562 9.46465L5.4 9.98965C5.34622 10.0053 5.28921 10.0063 5.23494 9.99238C5.18067 9.97847 5.13114 9.95024 5.09153 9.91062C5.05192 9.87101 5.02368 9.82148 5.00978 9.76721C4.99587 9.71294 4.99681 9.65593 5.0125 9.60215L5.5375 7.80653C5.59658 7.60531 5.70533 7.42219 5.85375 7.27403L11.4869 1.64028Z" stroke="black" stroke-linecap="round" stroke-linejoin="round"/>
</svg>
