<svg width="16" height="16" viewBox="0 0 16 16" fill="none" xmlns="http://www.w3.org/2000/svg">
<path d="M8 15.5C12.1421 15.5 15.5 12.1421 15.5 8C15.5 3.85786 12.1421 0.5 8 0.5C3.85786 0.5 0.5 3.85786 0.5 8C0.5 12.1421 3.85786 15.5 8 15.5Z" stroke="white" stroke-linecap="round" stroke-linejoin="round"/>
<path d="M5.82031 5.74945C5.99664 5.2482 6.34468 4.82553 6.80278 4.5563C7.26088 4.28707 7.79948 4.18865 8.32319 4.27848C8.84691 4.36831 9.32192 4.64059 9.66412 5.0471C10.0063 5.4536 10.1936 5.96809 10.1928 6.49945C10.1928 7.99945 7.94281 8.74945 7.94281 8.74945" stroke="white" stroke-linejoin="round"/>
<path d="M8 11.75H8.0075" stroke="white" stroke-width="2" stroke-linecap="round" stroke-linejoin="round"/>
</svg>
