<svg width="13" height="13" viewBox="0 0 13 13" fill="none" xmlns="http://www.w3.org/2000/svg">
<path d="M3.46644 6.50026L6.06644 8.66693L9.53311 4.33359M6.49977 12.5669C5.70309 12.5669 4.9142 12.41 4.17816 12.1051C3.44212 11.8003 2.77333 11.3534 2.20999 10.79C1.64665 10.2267 1.19978 9.55792 0.894903 8.82187C0.590024 8.08583 0.433105 7.29695 0.433105 6.50026C0.433105 5.70357 0.590024 4.91469 0.894903 4.17865C1.19978 3.44261 1.64665 2.77382 2.20999 2.21048C2.77333 1.64714 3.44212 1.20027 4.17816 0.895391C4.9142 0.590513 5.70309 0.433594 6.49977 0.433594C8.10875 0.433594 9.65183 1.07276 10.7896 2.21048C11.9273 3.3482 12.5664 4.89128 12.5664 6.50026C12.5664 8.10924 11.9273 9.65232 10.7896 10.79C9.65183 11.9278 8.10875 12.5669 6.49977 12.5669Z" stroke="#258D5B" stroke-width="0.866667"/>
</svg>
