<svg width="21" height="14" viewBox="0 0 21 14" fill="none" xmlns="http://www.w3.org/2000/svg">
<path d="M0 7.998L0.25 6.998H4.73L4.48 7.998H0ZM5.827 14C5.135 14 4.545 13.7567 4.057 13.27C3.569 12.7833 3.32567 12.1933 3.327 11.5H1.097L1.597 9.498H5.656L6.517 6.002H8.656L9.656 2.002H3.654L3.958 0.902C4.01933 0.64 4.14933 0.424333 4.348 0.255C4.54467 0.0850001 4.78233 0 5.061 0H16.134L15.324 3.5H17.403L20.115 7.116L19.249 11.5H18.095C18.095 12.1927 17.8517 12.7827 17.365 13.27C16.8783 13.7573 16.2883 14.0007 15.595 14C14.9017 13.9993 14.312 13.756 13.826 13.27C13.34 12.784 13.0967 12.194 13.096 11.5H8.327C8.327 12.1927 8.08367 12.7827 7.597 13.27C7.11033 13.7573 6.52033 14.0007 5.827 14ZM2 4.502L2.25 3.502H7.73L7.48 4.502H2ZM5.827 13C6.23833 13 6.59133 12.853 6.886 12.559C7.18 12.2643 7.327 11.9113 7.327 11.5C7.327 11.0887 7.18 10.7357 6.886 10.441C6.592 10.1463 6.239 9.99933 5.827 10C5.415 10.0007 5.062 10.1477 4.768 10.441C4.474 10.7357 4.327 11.0887 4.327 11.5C4.327 11.9113 4.474 12.2643 4.768 12.559C5.06267 12.853 5.41567 13 5.827 13ZM15.597 13C16.0083 13 16.361 12.853 16.655 12.559C16.949 12.2643 17.096 11.9113 17.096 11.5C17.096 11.0887 16.949 10.7357 16.655 10.441C16.361 10.1463 16.008 9.99933 15.596 10C15.184 10.0007 14.8313 10.1477 14.538 10.441C14.2433 10.7357 14.096 11.0887 14.096 11.5C14.096 11.9113 14.243 12.2643 14.537 12.559C14.8317 12.853 15.185 13 15.597 13ZM14.213 8.25H18.866L19.042 7.36L16.904 4.5H15.086L14.213 8.25Z" fill="black"/>
</svg>
