<svg width="70" height="69" viewBox="0 0 70 69" fill="none" xmlns="http://www.w3.org/2000/svg">
<path d="M29.3184 4.52979C30.9876 -0.843732 38.5944 -0.843732 40.2637 4.52979C41.5834 8.7786 46.589 10.6013 50.3311 8.19482C55.0638 5.15138 60.8899 10.0397 58.7148 15.229C56.9947 19.3321 59.6579 23.9454 64.0713 24.5073C69.6533 25.218 70.974 32.7087 65.9717 35.2856C62.0167 37.3231 61.0917 42.5691 64.1113 45.8364C67.9305 49.9687 64.1278 56.5558 58.6396 55.3149C54.3003 54.3335 50.2198 57.7569 50.4326 62.2007C50.7021 67.8213 43.5539 70.4227 40.1475 65.9438C37.4541 62.4032 32.1279 62.4032 29.4346 65.9438C26.0281 70.4227 18.88 67.8213 19.1494 62.2007C19.3622 57.7569 15.2817 54.3335 10.9424 55.3149C5.45422 56.5558 1.65154 49.9687 5.4707 45.8364C8.49037 42.5691 7.56538 37.3231 3.61035 35.2856C-1.39198 32.7087 -0.071285 25.218 5.51074 24.5073C9.92416 23.9454 12.5873 19.3321 10.8672 15.229C8.6921 10.0397 14.5182 5.15138 19.251 8.19482C22.993 10.6013 27.9986 8.7786 29.3184 4.52979Z" fill="#FFE730" stroke="#434343"/>
</svg>
