<svg width="31" height="31" viewBox="0 0 31 31" fill="none" xmlns="http://www.w3.org/2000/svg">
<path d="M28.4154 22.9606C28.4153 24.7271 27.8116 26.4406 26.7045 27.8172C25.5974 29.1938 24.0532 30.1508 22.3277 30.5298L21.5037 28.0575C22.2584 27.9335 22.9762 27.6434 23.6052 27.2083C24.2342 26.7732 24.7587 26.2038 25.141 25.5413H21.957C21.2719 25.5413 20.6148 25.2692 20.1303 24.7847C19.6459 24.3002 19.3737 23.6432 19.3737 22.958V17.7913C19.3737 17.1062 19.6459 16.4491 20.1303 15.9646C20.6148 15.4802 21.2719 15.208 21.957 15.208H25.7519C25.4367 12.7111 24.2212 10.415 22.3335 8.75055C20.4457 7.08611 18.0154 6.16773 15.4987 6.16773C12.982 6.16773 10.5517 7.08611 8.66394 8.75055C6.77618 10.415 5.56065 12.7111 5.24545 15.208H9.04037C9.72551 15.208 10.3826 15.4802 10.8671 15.9646C11.3515 16.4491 11.6237 17.1062 11.6237 17.7913V22.958C11.6237 23.6432 11.3515 24.3002 10.8671 24.7847C10.3826 25.2692 9.72551 25.5413 9.04037 25.5413H5.16536C4.48022 25.5413 3.82314 25.2692 3.33867 24.7847C2.8542 24.3002 2.58203 23.6432 2.58203 22.958V16.4997C2.58203 9.3658 8.36482 3.58301 15.4987 3.58301C22.6326 3.58301 28.4154 9.3658 28.4154 16.4997V22.9606ZM25.832 22.958V17.7913H21.957V22.958H25.832ZM5.16536 17.7913V22.958H9.04037V17.7913H5.16536Z" fill="white"/>
</svg>
