<svg width="31" height="31" viewBox="0 0 31 31" fill="none" xmlns="http://www.w3.org/2000/svg">
<path d="M6.78244 25.4266C5.72898 25.4266 4.83614 25.0586 4.10393 24.3225C3.37076 23.5865 3.00417 22.6927 3.00417 21.6411H2.16922C1.83833 21.6411 1.56098 21.5292 1.33716 21.3054C1.11335 21.0816 1.00096 20.8038 1 20.4719V7.33844C1 6.67183 1.22333 6.11568 1.66999 5.66999C2.11664 5.22429 2.6728 5.00096 3.33844 5H20.146C20.7895 5 21.3398 5.22912 21.7971 5.68735C22.2544 6.14559 22.4835 6.69547 22.4844 7.33699V10.2311H24.655C25.0245 10.2311 25.3747 10.3141 25.7056 10.48C26.0374 10.6459 26.3105 10.875 26.5246 11.1674L30.5981 16.6517C30.6762 16.7491 30.7346 16.8562 30.7732 16.9729C30.8118 17.0897 30.8311 17.2165 30.8311 17.3535V20.4719C30.8311 20.8038 30.7196 21.0816 30.4968 21.3054C30.2739 21.5292 29.9961 21.6411 29.6633 21.6411H28.4941C28.4941 22.6927 28.1255 23.5865 27.3885 24.3225C26.6515 25.0586 25.7567 25.4262 24.7042 25.4252C23.6517 25.4242 22.7584 25.0567 22.0243 24.3225C21.2901 23.5884 20.9235 22.6946 20.9245 21.6411H10.5752C10.5752 22.6985 10.2067 23.5937 9.46962 24.3269C8.73258 25.0601 7.83589 25.4266 6.78244 25.4266ZM6.78967 23.9796C7.44085 23.9796 7.99314 23.7529 8.44655 23.2995C8.89996 22.8461 9.12667 22.2933 9.12667 21.6411C9.12667 20.989 8.89996 20.4367 8.44655 19.9843C7.99314 19.5318 7.44085 19.3051 6.78967 19.3041C6.1385 19.3032 5.5862 19.5299 5.13279 19.9843C4.67938 20.4386 4.45268 20.9909 4.45268 21.6411C4.45268 22.2914 4.67938 22.8436 5.13279 23.298C5.5862 23.7524 6.1385 23.9805 6.78967 23.9796ZM2.4485 20.1941H3.38475C3.59023 19.5555 4.00939 19.0065 4.64224 18.5473C5.27509 18.0881 5.9909 17.8576 6.78967 17.8556C7.55179 17.8556 8.25891 18.0814 8.91105 18.5329C9.56223 18.9834 9.99056 19.5371 10.196 20.1941H21.0388V7.33844C21.0388 7.07797 20.9549 6.86429 20.787 6.6974C20.6192 6.5305 20.4055 6.44706 20.146 6.44706H3.33844C3.1156 6.44706 2.91156 6.53967 2.72634 6.72489C2.54015 6.91108 2.44706 7.1156 2.44706 7.33844L2.4485 20.1941ZM24.7115 23.9796C25.3626 23.9796 25.9149 23.7529 26.3683 23.2995C26.8217 22.8451 27.0485 22.2923 27.0485 21.6411C27.0485 20.99 26.8217 20.4377 26.3683 19.9843C25.9149 19.5309 25.3626 19.3041 24.7115 19.3041C24.0603 19.3041 23.508 19.5309 23.0546 19.9843C22.6012 20.4377 22.3745 20.99 22.3745 21.6411C22.3745 22.2923 22.6012 22.8446 23.0546 23.298C23.508 23.7514 24.0603 23.9796 24.7115 23.9796ZM22.483 17.3H29.3015L25.3221 12.0414C25.2295 11.9295 25.1229 11.8412 25.0023 11.7766C24.8817 11.7119 24.7472 11.6796 24.5986 11.6796H22.4844L22.483 17.3Z" fill="white"/>
</svg>
