<svg width="14" height="14" viewBox="0 0 14 14" fill="none" xmlns="http://www.w3.org/2000/svg">
<path d="M2.9165 7.00065V2.33398M11.0832 11.6673V9.91732M2.9165 11.6673V9.33398M11.0832 7.58398V2.33398M6.99984 4.08398V2.33398M6.99984 11.6673V6.41732" stroke="white" stroke-linecap="round"/>
<path d="M2.91667 9.33333C3.561 9.33333 4.08333 8.811 4.08333 8.16667C4.08333 7.52233 3.561 7 2.91667 7C2.27233 7 1.75 7.52233 1.75 8.16667C1.75 8.811 2.27233 9.33333 2.91667 9.33333Z" stroke="white" stroke-linecap="round"/>
<path d="M7.00016 6.41732C7.6445 6.41732 8.16683 5.89498 8.16683 5.25065C8.16683 4.60632 7.6445 4.08398 7.00016 4.08398C6.35583 4.08398 5.8335 4.60632 5.8335 5.25065C5.8335 5.89498 6.35583 6.41732 7.00016 6.41732Z" stroke="white" stroke-linecap="round"/>
<path d="M11.0832 9.91732C11.7275 9.91732 12.2498 9.39498 12.2498 8.75065C12.2498 8.10632 11.7275 7.58398 11.0832 7.58398C10.4388 7.58398 9.9165 8.10632 9.9165 8.75065C9.9165 9.39498 10.4388 9.91732 11.0832 9.91732Z" stroke="white" stroke-linecap="round"/>
</svg>
