<svg width="17" height="17" viewBox="0 0 17 17" fill="none" xmlns="http://www.w3.org/2000/svg">
<path d="M7.625 1.28857H2.08333C1.66341 1.28857 1.26068 1.45539 0.963748 1.75232C0.666815 2.04925 0.5 2.45198 0.5 2.87191V13.9552C0.5 14.3752 0.666815 14.7779 0.963748 15.0748C1.26068 15.3718 1.66341 15.5386 2.08333 15.5386H13.1667C13.5866 15.5386 13.9893 15.3718 14.2863 15.0748C14.5832 14.7779 14.75 14.3752 14.75 13.9552V8.41357" stroke="black" stroke-linecap="round" stroke-linejoin="round"/>
<path d="M12.6737 0.991879C12.9887 0.676934 13.4158 0.5 13.8612 0.5C14.3066 0.5 14.7338 0.676934 15.0487 0.991879C15.3637 1.30682 15.5406 1.73398 15.5406 2.17938C15.5406 2.62478 15.3637 3.05193 15.0487 3.36688L7.91345 10.503C7.72547 10.6908 7.49324 10.8283 7.23816 10.9028L4.9637 11.5678C4.89558 11.5876 4.82337 11.5888 4.75463 11.5712C4.68589 11.5536 4.62314 11.5178 4.57297 11.4676C4.52279 11.4175 4.48703 11.3547 4.46942 11.286C4.4518 11.2173 4.453 11.145 4.47286 11.0769L5.13786 8.80246C5.2127 8.54758 5.35045 8.31563 5.53845 8.12796L12.6737 0.991879Z" stroke="black" stroke-linecap="round" stroke-linejoin="round"/>
</svg>
